<svg width="76" height="23" viewBox="0 0 76 23" fill="none" xmlns="http://www.w3.org/2000/svg">
<g clip-path="url(#clip0_1_272)">
<path d="M56.4002 5.07693C58.4009 5.07693 60.1993 5.89834 61.3134 7.41227L58.8566 9.2856C58.5702 8.90403 58.1976 8.59767 57.7702 8.39226C57.3427 8.18685 56.8728 8.0884 56.4 8.10516C54.6778 8.10516 53.0825 9.33708 53.0825 11.2876C53.0825 13.2382 54.6778 14.5725 56.4 14.5725C56.8747 14.5844 57.3454 14.4812 57.7727 14.2714C58.2 14.0616 58.5717 13.7513 58.8566 13.3663L61.3386 15.2139C60.224 16.7282 58.4263 17.5752 56.4 17.5752C53.0064 17.5752 50.0179 15.0602 50.0179 11.2876C50.0179 7.48929 53.0064 5.07693 56.4 5.07693" fill="black"/>
<path d="M74.6977 14.9549C74.9586 14.9514 75.2146 15.0266 75.4332 15.171C75.6518 15.3153 75.8231 15.5222 75.9253 15.7654C76.0276 16.0087 76.0561 16.2772 76.0074 16.5369C75.9587 16.7966 75.8349 17.0358 75.6517 17.2241C75.4685 17.4123 75.2342 17.5411 74.9787 17.5941C74.7231 17.6471 74.4577 17.6219 74.2163 17.5217C73.9748 17.4215 73.7683 17.2508 73.6228 17.0313C73.4773 16.8119 73.3995 16.5536 73.3993 16.2892C73.398 16.1151 73.4305 15.9425 73.4951 15.7813C73.5596 15.62 73.6549 15.4732 73.7755 15.3492C73.8961 15.2253 74.0397 15.1267 74.1979 15.059C74.3561 14.9914 74.526 14.956 74.6977 14.9549ZM74.6977 17.3863C74.9128 17.3889 75.1239 17.3266 75.3039 17.2074C75.484 17.0881 75.625 16.9173 75.7091 16.7167C75.7931 16.516 75.8163 16.2945 75.7758 16.0804C75.7353 15.8663 75.6329 15.6693 75.4815 15.5144C75.3302 15.3594 75.1368 15.2536 74.926 15.2103C74.7152 15.167 74.4964 15.1883 74.2975 15.2714C74.0986 15.3544 73.9286 15.4955 73.8091 15.6768C73.6895 15.858 73.6259 16.0712 73.6262 16.2892C73.6254 16.4325 73.6525 16.5747 73.7059 16.7074C73.7593 16.8401 73.8381 16.9609 73.9376 17.0628C74.0371 17.1647 74.1555 17.2457 74.2859 17.3012C74.4163 17.3567 74.5563 17.3856 74.6977 17.3863ZM75.2333 16.9604H74.9209L74.5934 16.5003H74.5077V16.9604H74.251V15.6296H74.7608C74.8177 15.6274 74.8744 15.6373 74.9273 15.6586C74.9802 15.6799 75.0282 15.7121 75.0681 15.7533C75.108 15.7944 75.139 15.8436 75.1591 15.8976C75.1792 15.9515 75.1879 16.0092 75.1847 16.0668C75.1917 16.1588 75.1671 16.2505 75.1149 16.3261C75.0627 16.4018 74.9863 16.4568 74.8986 16.4818L75.2333 16.9604ZM74.5077 15.8864V16.2438H74.7533C74.7995 16.2436 74.8437 16.2252 74.8766 16.1924C74.9095 16.1596 74.9285 16.115 74.9294 16.0683C74.9304 16.0215 74.9133 15.9762 74.8817 15.9421C74.8502 15.9079 74.8067 15.8876 74.7606 15.8855L74.5077 15.8864Z" fill="black"/>
<path d="M42.1514 17.9685C40.7053 17.9668 39.3189 17.3839 38.2964 16.3477C37.2739 15.3115 36.6987 13.9066 36.697 12.4412V5.23007H39.7964V12.4407C39.7964 13.0736 40.0446 13.6807 40.4862 14.1283C40.9279 14.5758 41.527 14.8273 42.1516 14.8273C42.7762 14.8273 43.3753 14.5758 43.8169 14.1283C44.2586 13.6807 44.5068 13.0736 44.5068 12.4407V5.23007H47.606V12.4407C47.6045 13.9062 47.0293 15.3113 46.0067 16.3476C44.9841 17.3839 43.5976 17.9668 42.1514 17.9685Z" fill="black"/>
<path d="M66.522 20.246H64.9266L66.8237 16.2901L62.2144 5.22914H65.507L68.4445 12.6971L71.4078 5.22914H74.6999L68.8452 18.6864C68.6521 19.1489 68.3288 19.5435 67.9157 19.8208C67.5026 20.0982 67.018 20.2461 66.5224 20.246" fill="black"/>
<path d="M35.2776 17.9681H26.227V2.96196H29.3262V14.8275H35.2776V17.9681Z" fill="black"/>
<path d="M8.1962 17.826C8.1962 17.7215 8.2165 17.6181 8.25594 17.5216C8.29539 17.4252 8.3532 17.3375 8.42608 17.2637C8.49896 17.1898 8.58547 17.1313 8.68069 17.0913C8.77591 17.0514 8.87796 17.0308 8.98101 17.0308H10.9972C11.1003 17.0308 11.2023 17.0514 11.2975 17.0914C11.3927 17.1313 11.4792 17.1899 11.552 17.2637C11.6249 17.3376 11.6827 17.4252 11.7221 17.5217C11.7615 17.6181 11.7818 17.7215 11.7818 17.826C11.7818 17.9304 11.7615 18.0338 11.7221 18.1302C11.6827 18.2267 11.6249 18.3143 11.552 18.3882C11.4792 18.462 11.3927 18.5206 11.2975 18.5605C11.2023 18.6005 11.1003 18.6211 10.9972 18.6211H8.98101C8.77297 18.6208 8.57352 18.537 8.4264 18.3879C8.27927 18.2389 8.19649 18.0368 8.1962 17.826ZM11.2466 8.42297C11.2466 8.26204 11.2937 8.10473 11.382 7.97092C11.4702 7.83712 11.5956 7.73284 11.7423 7.67126C11.889 7.60968 12.0505 7.59358 12.2062 7.62499C12.362 7.6564 12.5051 7.73391 12.6173 7.84771C12.7296 7.96152 12.8061 8.10651 12.837 8.26435C12.868 8.42219 12.8521 8.58579 12.7913 8.73446C12.7305 8.88313 12.6275 9.01018 12.4955 9.09956C12.3634 9.18894 12.2082 9.23663 12.0494 9.23659C11.9439 9.23659 11.8395 9.21555 11.7421 9.17466C11.6447 9.13377 11.5562 9.07383 11.4817 8.99828C11.4071 8.92272 11.348 8.83303 11.3077 8.73432C11.2674 8.6356 11.2466 8.52981 11.2466 8.42297ZM9.33331 0.183579L8.3316 0.769449C8.27383 0.803164 8.22867 0.855265 8.20313 0.917661C8.17758 0.980057 8.17309 1.04926 8.19033 1.11451C8.20758 1.17976 8.24561 1.23741 8.29852 1.27851C8.35142 1.31961 8.41624 1.34186 8.4829 1.3418H9.24706C9.35339 1.34183 9.45855 1.36441 9.55575 1.40809C9.65296 1.45177 9.74007 1.51558 9.81148 1.59542C9.88289 1.67527 9.93701 1.76937 9.97037 1.87169C10.0037 1.974 10.0156 2.08226 10.0052 2.1895C9.98125 2.38386 9.88729 2.56241 9.74135 2.69084C9.59542 2.81928 9.4078 2.88855 9.21454 2.88536H5.55598C5.00509 2.88541 4.46391 3.03229 3.98673 3.31124L2.88306 3.95766C2.83072 3.98819 2.78979 4.03539 2.76664 4.09191C2.74349 4.14844 2.73942 4.21113 2.75504 4.27024C2.77067 4.32936 2.80512 4.38159 2.85306 4.41882C2.90099 4.45605 2.95971 4.4762 3.0201 4.47613H10.9345C11.1278 4.47284 11.3155 4.54208 11.4615 4.67053C11.6075 4.79898 11.7015 4.97757 11.7254 5.17199C11.7358 5.27924 11.724 5.38752 11.6906 5.48985C11.6573 5.59219 11.6031 5.68632 11.5317 5.76618C11.4603 5.84605 11.3732 5.90988 11.276 5.95357C11.1788 5.99726 11.0736 6.01984 10.9672 6.01987H6.58747C6.3794 6.01987 6.17985 6.10363 6.03272 6.25272C5.8856 6.40182 5.80294 6.60403 5.80294 6.81488C5.80294 7.02573 5.8856 7.22795 6.03272 7.37704C6.17985 7.52614 6.3794 7.6099 6.58747 7.6099H9.21454C9.40784 7.60667 9.5955 7.67595 9.74145 7.80443C9.88739 7.93291 9.98133 8.11153 10.0052 8.30594C10.0156 8.41317 10.0037 8.52142 9.97037 8.62373C9.93701 8.72603 9.88288 8.82012 9.81147 8.89995C9.74006 8.97978 9.65295 9.04358 9.55574 9.08724C9.45854 9.1309 9.35339 9.15345 9.24706 9.15345H0.784628C0.578581 9.15664 0.382037 9.24182 0.237439 9.3906C0.0928411 9.53939 0.0117912 9.73983 0.0117912 9.94866C0.0117912 10.1575 0.0928411 10.3579 0.237439 10.5067C0.382037 10.6555 0.578581 10.7407 0.784628 10.7439H10.9342C11.1275 10.7406 11.3152 10.8098 11.4611 10.9383C11.6071 11.0667 11.7011 11.2453 11.725 11.4397C11.7354 11.5469 11.7236 11.6552 11.6903 11.7575C11.6569 11.8598 11.6028 11.9539 11.5314 12.0338C11.4599 12.1136 11.3728 12.1774 11.2756 12.2211C11.1784 12.2647 11.0732 12.2873 10.9669 12.2872H0.784628C0.576531 12.2872 0.376958 12.371 0.229812 12.5201C0.0826658 12.6692 0 12.8715 0 13.0823C0 13.2932 0.0826658 13.4954 0.229812 13.6446C0.376958 13.7937 0.576531 13.8774 0.784628 13.8774H9.21454C9.4078 13.8742 9.59542 13.9435 9.74135 14.072C9.88729 14.2004 9.98125 14.3789 10.0052 14.5733C10.0156 14.6805 10.0037 14.7888 9.97037 14.8911C9.93701 14.9934 9.88289 15.0875 9.81148 15.1674C9.74007 15.2472 9.65296 15.311 9.55575 15.3547C9.45855 15.3984 9.35339 15.421 9.24706 15.421H3.36326C3.15517 15.421 2.9556 15.5048 2.80845 15.6539C2.6613 15.803 2.57864 16.0052 2.57864 16.2161C2.57864 16.427 2.6613 16.6292 2.80845 16.7783C2.9556 16.9274 3.15517 17.0112 3.36326 17.0112H6.09137C6.28467 17.008 6.47233 17.0772 6.6183 17.2057C6.76428 17.3341 6.85827 17.5127 6.88221 17.7071C6.89265 17.8143 6.88081 17.9226 6.84745 18.0249C6.8141 18.1272 6.75998 18.2214 6.68856 18.3012C6.61715 18.3811 6.53003 18.4449 6.43281 18.4885C6.33559 18.5322 6.23042 18.5548 6.12408 18.5548H3.07127C3.01089 18.5547 2.95219 18.5749 2.90429 18.6122C2.85639 18.6494 2.82197 18.7016 2.80637 18.7607C2.79076 18.8198 2.79486 18.8825 2.81801 18.939C2.84116 18.9955 2.88208 19.0427 2.93441 19.0732L4.0388 19.7195C4.51595 19.9985 5.05716 20.1454 5.60806 20.1454H9.21454C9.40783 20.1422 9.59547 20.2115 9.7414 20.3399C9.88734 20.4684 9.98129 20.647 10.0052 20.8414C10.0156 20.9486 10.0038 21.0569 9.97043 21.1592C9.93708 21.2616 9.88296 21.3557 9.81154 21.4355C9.74013 21.5154 9.65301 21.5792 9.55579 21.6229C9.45857 21.6665 9.3534 21.6891 9.24706 21.6891H8.53443C8.46796 21.6893 8.40341 21.7117 8.35074 21.7528C8.29808 21.7939 8.26022 21.8514 8.24301 21.9165C8.2258 21.9815 8.23019 22.0505 8.25552 22.1128C8.28084 22.1751 8.32568 22.2272 8.38313 22.2611L9.33331 22.8166C9.53861 22.9368 9.77155 23.0001 10.0087 23.0001C10.2458 23.0001 10.4787 22.9368 10.684 22.8166L19.3423 17.7513C19.5477 17.6313 19.7183 17.4586 19.837 17.2506C19.9557 17.0425 20.0183 16.8065 20.0184 16.5663V6.43464C20.0181 6.19439 19.9555 5.95842 19.8369 5.75042C19.7182 5.54242 19.5477 5.3697 19.3423 5.24957L10.6842 0.183579C10.4789 0.0633189 10.246 0 10.0088 0C9.77172 0 9.5386 0.0633189 9.33331 0.183579Z" fill="#007BFF"/>
<path d="M0 16.2176C4.11262e-09 16.3785 0.0470941 16.5358 0.135326 16.6696C0.223558 16.8034 0.348964 16.9077 0.495685 16.9693C0.642407 17.0309 0.803853 17.047 0.959606 17.0156C1.11536 16.9842 1.25842 16.9067 1.3707 16.7928C1.48298 16.679 1.55944 16.5341 1.5904 16.3762C1.62135 16.2184 1.60543 16.0548 1.54463 15.9061C1.48383 15.7574 1.3809 15.6304 1.24884 15.541C1.11678 15.4516 0.961524 15.4039 0.802717 15.404C0.589807 15.404 0.385633 15.4898 0.2351 15.6423C0.0845663 15.7949 -5.51375e-09 16.0018 0 16.2176Z" fill="#007BFF"/>
<path d="M0.784445 6.03295H3.6898C3.89794 6.03295 4.09756 6.11674 4.24474 6.26588C4.39192 6.41503 4.47461 6.61731 4.47461 6.82824C4.47461 7.03911 4.39194 7.24135 4.2448 7.39047C4.09765 7.53958 3.89808 7.62335 3.68998 7.62335H0.784628C0.576532 7.62335 0.376959 7.53958 0.229812 7.39047C0.082666 7.24135 8.51355e-08 7.03911 8.51355e-08 6.82824C-4.79212e-05 6.72382 0.0202069 6.62041 0.0596075 6.52392C0.0990081 6.42743 0.156782 6.33976 0.22963 6.2659C0.302477 6.19205 0.38897 6.13346 0.484167 6.09349C0.579364 6.05352 0.6814 6.03295 0.784445 6.03295Z" fill="#007BFF"/>
</g>
<defs>
<clipPath id="clip0_1_272">
<rect width="76" height="23" fill="white"/>
</clipPath>
</defs>
</svg>
